<?xml version="1.0" encoding="UTF-8" standalone="no"?>
<!-- Created with Inkscape (http://www.inkscape.org/) -->

<svg
   version="1.1"
   id="svg1"
   width="10.414249"
   height="10.086124"
   viewBox="0 0 10.414249 10.086124"
   sodipodi:docname="suit_symbols.pdf"
   xmlns:inkscape="http://www.inkscape.org/namespaces/inkscape"
   xmlns:sodipodi="http://sodipodi.sourceforge.net/DTD/sodipodi-0.dtd"
   xmlns="http://www.w3.org/2000/svg"
   xmlns:svg="http://www.w3.org/2000/svg">
  <defs
     id="defs1" />
  <sodipodi:namedview
     id="namedview1"
     pagecolor="#ffffff"
     bordercolor="#000000"
     borderopacity="0.25"
     inkscape:showpageshadow="2"
     inkscape:pageopacity="0.0"
     inkscape:pagecheckerboard="0"
     inkscape:deskcolor="#d1d1d1" />
  <g
     id="g1"
     inkscape:groupmode="layer"
     inkscape:label="1"
     transform="translate(-83.831936,-4.9100628)">
    <path
       id="path4"
       d="m 2.0282656,0.00126562 v -0.78515625 c 0.6708985,0 1.1513672,-0.12011718 1.4414063,-0.36328127 0.2958984,-0.2490234 0.4453125,-0.6708984 0.4453125,-1.265625 -0.09375,0.2578125 -0.2783203,0.4628906 -0.5507813,0.609375 -0.2753906,0.140625 -0.5976562,0.2109375 -0.9726562,0.2109375 -0.3691407,0 -0.6972657,-0.073242 -0.984375,-0.2226562 C 1.1259219,-1.961625 0.90326562,-2.1667031 0.73920312,-2.4245156 0.581,-2.6881875 0.50482812,-2.9987344 0.50482812,-3.3502969 c 0,-0.3427734 0.0732422,-0.6445312 0.22265625,-0.9023437 0.14648438,-0.2636719 0.34277343,-0.4716797 0.58593753,-0.6210938 0.2490234,-0.1552734 0.515625,-0.234375 0.796875,-0.234375 0.1933593,0 0.3662109,0.029297 0.515625,0.082031 0.1464843,0.046875 0.3046875,0.140625 0.46875,0.28125 v -0.035156 c -0.1347657,-0.09375 -0.2578125,-0.2460937 -0.375,-0.4570312 -0.1113282,-0.2167969 -0.1640625,-0.421875 -0.1640625,-0.609375 0,-0.4921875 0.1669922,-0.881836 0.5039062,-1.171875 0.3339844,-0.2958985 0.7675781,-0.4453125 1.3007813,-0.4453125 0.5302734,0 0.9638672,0.149414 1.3007812,0.4453125 0.3427735,0.290039 0.515625,0.6796875 0.515625,1.171875 0,0.196289 -0.058594,0.3984375 -0.1757812,0.609375 -0.1171875,0.2109375 -0.2431641,0.3632812 -0.375,0.4570312 v 0.035156 c 0.1699218,-0.140625 0.3310547,-0.234375 0.4804687,-0.28125 0.1464844,-0.052734 0.3164063,-0.082031 0.5039063,-0.082031 0.2871093,0 0.5537109,0.079102 0.796875,0.234375 0.2402343,0.1494141 0.4365234,0.3574219 0.5859375,0.6210938 0.1464843,0.2578125 0.2226562,0.5595703 0.2226562,0.9023437 0,0.3515625 -0.082031,0.6621094 -0.2460937,0.9257813 -0.1582032,0.2578125 -0.3808594,0.4628906 -0.6679688,0.609375 -0.28125,0.149414 -0.6035156,0.2226562 -0.9609375,0.2226562 -0.383789,0 -0.711914,-0.070312 -0.984375,-0.2109375 -0.2666015,-0.1464844 -0.4453125,-0.3515625 -0.5390625,-0.609375 0,0.5947266 0.1435547,1.0166016 0.4335938,1.265625 0.2958984,0.24316409 0.7763672,0.36328127 1.4414062,0.36328127 v 0.78515625 z m 0,0"
       style="fill:#ff0000;fill-opacity:1;fill-rule:nonzero;stroke:#000000;stroke-width:0.09975;stroke-dasharray:none;stroke-opacity:1"
       aria-label="♣"
       transform="matrix(1.3333333,0,0,1.3333333,83.225333,14.928)" />
  </g>
</svg>
