<?xml version="1.0" encoding="UTF-8" standalone="no"?>
<!-- Created with Inkscape (http://www.inkscape.org/) -->

<svg
   version="1.1"
   id="svg1"
   width="10.039256"
   height="10.03925"
   viewBox="0 0 10.039256 10.039251"
   sodipodi:docname="suit_symbols.svg"
   inkscape:version="1.3 (0e150ed6c4, 2023-07-21)"
   xmlns:inkscape="http://www.inkscape.org/namespaces/inkscape"
   xmlns:sodipodi="http://sodipodi.sourceforge.net/DTD/sodipodi-0.dtd"
   xmlns="http://www.w3.org/2000/svg"
   xmlns:svg="http://www.w3.org/2000/svg">
  <defs
     id="defs1" />
  <sodipodi:namedview
     id="namedview1"
     pagecolor="#ffffff"
     bordercolor="#000000"
     borderopacity="0.25"
     inkscape:showpageshadow="2"
     inkscape:pageopacity="0.0"
     inkscape:pagecheckerboard="0"
     inkscape:deskcolor="#d1d1d1"
     inkscape:zoom="11.313709"
     inkscape:cx="61.253125"
     inkscape:cy="13.921165"
     inkscape:window-width="1920"
     inkscape:window-height="1009"
     inkscape:window-x="1912"
     inkscape:window-y="-8"
     inkscape:window-maximized="1"
     inkscape:current-layer="g1" />
  <g
     id="g1"
     inkscape:groupmode="layer"
     inkscape:label="1"
     transform="translate(-84.019439,-4.9569375)">
    <path
       id="path4"
       style="fill:#ff0000;fill-opacity:1;fill-rule:nonzero;stroke:#000000;stroke-width:0.133;stroke-dasharray:none;stroke-opacity:1"
       d="m 89.648438,8.2421875 c 0,-0.7929682 0.191406,-1.3554691 0.578124,-1.6875 0.394531,-0.3242182 1.035157,-0.484375 1.921876,-0.484375 v -1.046875 h -6.21875 v 1.046875 c 0.89453,0 1.535156,0.1601568 1.921874,0.484375 0.394531,0.3320309 0.59375,0.8945318 0.59375,1.6875 l 0.0036,1.1398222 -1.144254,8.071e-4 c -0.792968,0 -1.355469,-0.1992192 -1.6875,-0.59375 C 85.29297,8.4023441 85.132812,7.7617179 85.132812,6.8671875 h -1.046874 v 6.2187505 h 1.046874 c 0,-0.886719 0.160158,-1.527345 0.484376,-1.921876 0.332031,-0.386718 0.894532,-0.578124 1.6875,-0.578124 l 1.148925,-0.0083 -0.0083,1.1333 c 0,0.792967 -0.199219,1.355468 -0.59375,1.6875 -0.386718,0.324217 -1.027344,0.484374 -1.921874,0.484374 v 1.046876 h 6.21875 v -1.046876 c -0.886719,0 -1.527345,-0.160157 -1.921876,-0.484374 -0.386718,-0.332032 -0.578124,-0.894533 -0.578124,-1.6875 l -0.0017,-1.1305 1.126705,0.0055 c 0.792968,0 1.355468,0.191406 1.6875,0.578124 0.324217,0.394531 0.484374,1.035157 0.484374,1.921876 h 1.046876 V 6.8671875 h -1.046876 c 0,0.8945301 -0.160157,1.5351564 -0.484374,1.921875 -0.332032,0.3945306 -0.894532,0.59375 -1.6875,0.59375 l -1.125,-0.00161 z"
       sodipodi:nodetypes="ccccccccccccccccccccccccccccccccccccc" />
  </g>
</svg>
