<?xml version="1.0" encoding="UTF-8" standalone="no"?>
<!-- Created with Inkscape (http://www.inkscape.org/) -->

<svg
   version="1.1"
   id="svg1"
   width="8.6173744"
   height="10.592404"
   viewBox="0 0 8.6173742 10.592405"
   sodipodi:docname="suit_symbols.svg"
   inkscape:version="1.3 (0e150ed6c4, 2023-07-21)"
   xmlns:inkscape="http://www.inkscape.org/namespaces/inkscape"
   xmlns:sodipodi="http://sodipodi.sourceforge.net/DTD/sodipodi-0.dtd"
   xmlns="http://www.w3.org/2000/svg"
   xmlns:svg="http://www.w3.org/2000/svg">
  <defs
     id="defs1" />
  <sodipodi:namedview
     id="namedview1"
     pagecolor="#ffffff"
     bordercolor="#000000"
     borderopacity="0.25"
     inkscape:showpageshadow="2"
     inkscape:pageopacity="0.0"
     inkscape:pagecheckerboard="0"
     inkscape:deskcolor="#d1d1d1"
     inkscape:zoom="11.313709"
     inkscape:cx="61.253125"
     inkscape:cy="13.921165"
     inkscape:window-width="1920"
     inkscape:window-height="1009"
     inkscape:window-x="1912"
     inkscape:window-y="-8"
     inkscape:window-maximized="1"
     inkscape:current-layer="g1" />
  <g
     id="g1"
     inkscape:groupmode="layer"
     inkscape:label="1"
     transform="translate(-5.0350624,-5.1170935)">
    <path
       id="path1"
       d="M 3.4465781,8.515625e-4 C 3.288375,-0.38879688 3.0891563,-0.79016406 2.8489219,-1.2061797 2.6057578,-1.6280547 2.3157188,-2.0616484 1.9817344,-2.5069609 1.3254844,-3.3800078 0.91532813,-4.0303984 0.75126563,-4.4522734 0.58720313,-4.8507109 0.50517188,-5.2198516 0.50517188,-5.5655547 c 0,-0.2958984 0.0732422,-0.5654297 0.22265625,-0.8085937 0.15527343,-0.2402344 0.35449217,-0.4335938 0.59765627,-0.5742188 0.2490234,-0.140625 0.5214844,-0.2109375 0.8203125,-0.2109375 0.3105469,0 0.6005859,0.082031 0.8671875,0.2460938 0.2724609,0.1582031 0.4951172,0.3955078 0.6679687,0.7148437 0.178711,-0.3193359 0.4013672,-0.5566406 0.6679688,-0.7148437 0.2724609,-0.1640625 0.5654297,-0.2460938 0.8789062,-0.2460938 0.2871094,0 0.5566406,0.070312 0.8085938,0.2109375 0.2490234,0.140625 0.4482422,0.3339844 0.5976562,0.5742188 0.1552735,0.243164 0.234375,0.5126953 0.234375,0.8085937 0,0.3603516 -0.087891,0.75 -0.2578125,1.171875 C 6.429,-3.9718047 6.0159141,-3.3331328 5.3684531,-2.4835234 5.0461875,-2.0440703 4.7620078,-1.6192656 4.5129844,-1.2061797 4.2698203,-0.79016406 4.0706016,-0.38879688 3.9153281,8.515625e-4 L 3.6868125,0.59850783 Z"
       style="fill:#ff0000;fill-opacity:1;fill-rule:nonzero;stroke:#000000;stroke-width:0.09975;stroke-dasharray:none;stroke-opacity:1"
       aria-label="♥"
       transform="matrix(1.3333333,0,0,1.3333333,4.428,14.729333)"
       sodipodi:nodetypes="ccccsccscccsccscccccc" />
  </g>
</svg>
