<?xml version="1.0" encoding="UTF-8" standalone="no"?>
<!-- Created with Inkscape (http://www.inkscape.org/) -->

<svg
   version="1.1"
   id="svg1"
   width="8.4454994"
   height="10.278055"
   viewBox="0 0 8.4454992 10.278055"
   sodipodi:docname="suit_symbols.pdf"
   xmlns:inkscape="http://www.inkscape.org/namespaces/inkscape"
   xmlns:sodipodi="http://sodipodi.sourceforge.net/DTD/sodipodi-0.dtd"
   xmlns="http://www.w3.org/2000/svg"
   xmlns:svg="http://www.w3.org/2000/svg">
  <defs
     id="defs1" />
  <sodipodi:namedview
     id="namedview1"
     pagecolor="#ffffff"
     bordercolor="#000000"
     borderopacity="0.25"
     inkscape:showpageshadow="2"
     inkscape:pageopacity="0.0"
     inkscape:pagecheckerboard="0"
     inkscape:deskcolor="#d1d1d1" />
  <g
     id="g1"
     inkscape:groupmode="layer"
     inkscape:label="1"
     transform="translate(-58.246,-4.5579757)">
    <path
       id="path3"
       d="m 1.3354062,0.00114844 v -0.78515625 c 0.375,0 0.6914063,-0.0498047 0.9492188,-0.15234375 C 2.5482969,-1.04475 2.753375,-1.2088125 2.894,-1.4285391 c 0.1318359,-0.2167968 0.2255859,-0.5507812 0.28125,-0.9960937 -0.070312,0.1816406 -0.2285156,0.336914 -0.46875,0.46875 -0.234375,0.1347656 -0.4863281,0.1992187 -0.75,0.1992187 -0.2753906,0 -0.5214844,-0.058594 -0.7382813,-0.1757812 -0.21972651,-0.1230469 -0.39550776,-0.2958985 -0.5273437,-0.515625 -0.12597656,-0.2167969 -0.1875,-0.4716797 -0.1875,-0.7617188 0,-0.5449218 0.234375,-1.0195312 0.703125,-1.4179687 0.4599609,-0.3984375 0.8818359,-0.8232422 1.265625,-1.2773438 0.3896484,-0.4511718 0.7060547,-0.890625 0.9492187,-1.3125 L 3.6264218,-7.560375 3.8315,-7.2176016 c 0.140625,0.2519532 0.3222656,0.5273438 0.5507812,0.8320313 0.225586,0.2988281 0.4804688,0.5976562 0.7617188,0.9023437 0.2871094,0.2988282 0.5859375,0.5800782 0.890625,0.84375 0.46875,0.3984375 0.703125,0.8759766 0.703125,1.4296875 0,0.2900391 -0.064453,0.5449219 -0.1875,0.7617188 -0.1259766,0.2197265 -0.2988281,0.3925781 -0.515625,0.515625 -0.2197266,0.1171875 -0.4658203,0.1757812 -0.7382813,0.1757812 -0.2666015,0 -0.5214843,-0.064453 -0.7617187,-0.1992187 -0.234375,-0.131836 -0.3867188,-0.2871094 -0.4570313,-0.46875 0.038086,0.4453125 0.1289063,0.7734375 0.2695313,0.984375 0.140625,0.2109375 0.3427734,0.3720703 0.609375,0.48046874 0.2636719,0.1171875 0.5859375,0.17578125 0.9609375,0.17578125 v 0.78515625 z"
       style="fill:#ff0000;fill-opacity:1;fill-rule:nonzero;stroke:#000000;stroke-width:0.09975;stroke-dasharray:none;stroke-opacity:1"
       aria-label="♠"
       sodipodi:nodetypes="ccccccsccsccccccccsccsccscccc"
       transform="matrix(1.3333333,0,0,1.3333333,57.641333,14.768)" />
  </g>
</svg>
